# xmcd CD database file
#
# Track frame offsets:
#	180
#	34902
#	49911
#	65388
#	86065
#	106408
#	127680
#	156925
#	183429
#	206366
#	234207
#	249883
#
# Disc length: 3656 seconds
#
# Revision: 0
# Processed by: cddbd v1.5.1PL0 Copyright (c) Steve Scherf et al.
# Submitted via: CDex 1.50
#
DISCID=940e460c
DTITLE=Walt Harper and All That Jazz - In Very Good Company
DYEAR=1993
DGENRE=Jazz
TTITLE0=It's My Pleasue (Walt Harper)
TTITLE1=Mambo Inn (Grant Green)
TTITLE2=Our Love is Here To Stay (George Gershwin)
TTITLE3=Lady In My Life (Michael Jackson)
TTITLE4=Satin Doll (Duke Ellington)
TTITLE5=Don't Change This Mood I'm In (Walt Harper)
TTITLE6=Shiny Stockings (Frank Foster)
TTITLE7=I Wish You Love (Charles Trenet)
TTITLE8=Somewhere Over the Rainbow (Harold Arlen)
TTITLE9=Everyday (Count Basie)
TTITLE10=At Last  (H. Warren/M. Gordon)
TTITLE11=Get The Booty (Dizzy Gillespie)
EXTD=YEAR: 1993
EXTT0=
EXTT1=
EXTT2=
EXTT3=
EXTT4=
EXTT5=
EXTT6=
EXTT7=
EXTT8=
EXTT9=
EXTT10=
EXTT11=
PLAYORDER=
